<?xml version="1.0" encoding="utf-8"?>
<svg viewBox="25.54 33.639 221.02 63.606" width="221.02" height="63.606" xmlns="http://www.w3.org/2000/svg">
  <g transform="matrix(1.860205, 0, 0, 1.860205, 56.918648, 65.923088)" id="919848" style="">
    <g style="" vector-effect="non-scaling-stroke">
      <g transform="matrix(1 0 0 1 -6.8417 6.6073)" id="g-1">
        <path style="stroke: none; stroke-width: 1; stroke-dasharray: none; stroke-linecap: butt; stroke-dashoffset: 0; stroke-linejoin: miter; stroke-miterlimit: 4; is-custom-font: none; font-file-url: none; fill: rgb(44,174,68); fill-rule: nonzero; opacity: 1;" transform=" translate(-298.0083, -600.5623)" d="M 288.983 610.716 a 1 1 0 0 1 -0.528 -1.85 c 0.141 -0.088 14.151 -8.859 17.653 -17.833 a 1 1 0 0 1 1.863 0.727 c -3.745 9.6 -17.863 18.434 -18.462 18.8 A 0.993 0.993 0 0 1 288.983 610.716 Z" stroke-linecap="round"/>
      </g>
      <g transform="matrix(1 0 0 1 2.1266 -1.4195)" id="g-1">
        <path style="stroke: none; stroke-width: 1; stroke-dasharray: none; stroke-linecap: butt; stroke-dashoffset: 0; stroke-linejoin: miter; stroke-miterlimit: 4; is-custom-font: none; font-file-url: none; fill: rgb(44,174,68); fill-rule: nonzero; opacity: 1;" transform=" translate(-306.9766, -592.5355)" d="M 292.256 607.871 l -0.017 -1.09 a 28.119 28.119 0 0 1 4.178 -14.957 l 0.3 -0.441 h 3.806 L 299.6 588.4 l 0.293 -0.4 c 5.611 -7.734 15.292 -10.108 19.194 -10.77 a 2.261 2.261 0 0 1 2.621 2.408 c -1.791 25.095 -28.105 28.1 -28.371 28.125 Z m 5.547 -14.488 a 26.983 26.983 0 0 0 -3.554 12.23 c 4.909 -0.811 23.983 -5.3 25.469 -26.121 a 0.275 0.275 0 0 0 -0.09 -0.232 a 0.224 0.224 0 0 0 -0.2 -0.06 c -3.59 0.608 -12.393 2.752 -17.614 9.575 l 0.776 2.529 a 1.607 1.607 0 0 1 -1.536 2.079 Z" stroke-linecap="round"/>
      </g>
    </g>
  </g>
  <g transform="matrix(0.414882, 0, 0, 0.414882, 175.072449, 70.584496)" style="" id="822114">
    <path font-family="Exo" font-size="202" font-style="normal" font-weight="bold" 
    style="stroke: none; stroke-width: 1; stroke-dasharray: none; stroke-linecap: butt; stroke-dashoffset: 0; stroke-linejoin: miter; stroke-miterlimit: 4; is-custom-font: none; font-file-url: none; fill: rgb(0,0,0); fill-rule: nonzero; opacity: 1; white-space: pre;"
    d="M-79.99 63.46L-135.14 63.46Q-146.65 63.46-154.63 59.92Q-162.61 56.39-166.55 48.61Q-170.49 40.83-170.49 28.11L-170.49 28.11L-170.49-86.02L-140.59-86.02L-140.59 23.26Q-140.59 28.11-138.87 31.14Q-137.16 34.17-134.13 35.28Q-131.10 36.39-127.26 36.39L-127.26 36.39L-79.99 36.39L-79.99 63.46ZM-37.17-60.98L-60.20-60.98Q-64.44-60.98-64.44-65.02L-64.44-65.02L-64.44-84.81Q-64.44-89.05-60.20-89.05L-60.20-89.05L-37.17-89.05Q-35.35-89.05-34.34-87.84Q-33.33-86.63-33.33-84.81L-33.33-84.81L-33.33-65.02Q-33.33-60.98-37.17-60.98L-37.17-60.98ZM-33.94 63.46L-63.83 63.46L-63.83-45.02L-33.94-45.02L-33.94 63.46ZM40.20 63.46L10.30 63.46L10.30-58.75L-16.16-55.32L-16.16-74.51L13.53-87.44L40.20-87.44L40.20 63.46ZM134.33 64.26L103.02 64.26Q90.50 64.26 81.71 59.92Q72.92 55.58 68.38 46.89Q63.83 38.21 63.83 25.68L63.83 25.68L63.83-47.04Q63.83-60.17 68.48-69.16Q73.12-78.15 82.11-82.69Q91.10-87.24 103.22-87.24L103.22-87.24L134.33-87.24Q147.06-87.24 155.44-82.49Q163.82-77.74 168.06-68.75Q172.31-59.76 172.31-47.04L172.31-47.04L172.31 25.68Q172.31 44.47 162.31 54.37Q152.31 64.26 134.33 64.26L134.33 64.26ZM110.09 37.40L110.09 37.40L126.25 37.40Q134.53 37.40 138.47 33.36Q142.41 29.32 142.41 21.24L142.41 21.24L142.41-44.21Q142.41-53.10 138.37-56.73Q134.33-60.37 127.46-60.37L127.46-60.37L109.08-60.37Q101.61-60.37 97.67-56.33Q93.73-52.29 93.73-44.21L93.73-44.21L93.73 21.04Q93.73 29.52 97.97 33.46Q102.21 37.40 110.09 37.40Z"/>
  </g>
</svg>
